<svg width="21" height="20" viewBox="0 0 21 20" fill="none" xmlns="http://www.w3.org/2000/svg">
<path d="M20.0645 4.69517C19.8869 4.38751 19.6327 4.13112 19.3265 3.95102C19.0203 3.77092 18.6727 3.67324 18.3175 3.66752H5.16364L4.56761 1.34504C4.50739 1.12085 4.37304 0.923652 4.18643 0.785566C3.99983 0.647479 3.77197 0.57664 3.53997 0.584587H1.48468C1.21213 0.584587 0.950742 0.692856 0.758021 0.885577C0.565301 1.0783 0.457031 1.33968 0.457031 1.61223C0.457031 1.88478 0.565301 2.14617 0.758021 2.33889C0.950742 2.53161 1.21213 2.63988 1.48468 2.63988H2.75896L5.59525 13.1835C5.65547 13.4077 5.78983 13.6049 5.97643 13.743C6.16304 13.8811 6.3909 13.9519 6.6229 13.944H15.8717C16.0615 13.9434 16.2474 13.8903 16.4088 13.7905C16.5702 13.6908 16.7009 13.5482 16.7863 13.3788L20.157 6.63741C20.3031 6.33119 20.3711 5.99356 20.3549 5.65466C20.3388 5.31576 20.239 4.98612 20.0645 4.69517ZM15.2346 11.8887H7.40391L5.72885 5.72281H18.3175L15.2346 11.8887Z" fill="#D7DDE8"/>
<path d="M6.10885 19.0821C6.96018 19.0821 7.65032 18.3919 7.65032 17.5406C7.65032 16.6893 6.96018 15.9991 6.10885 15.9991C5.25752 15.9991 4.56738 16.6893 4.56738 17.5406C4.56738 18.3919 5.25752 19.0821 6.10885 19.0821Z" fill="#D7DDE8"/>
<path d="M16.3859 19.0821C17.2372 19.0821 17.9274 18.3919 17.9274 17.5406C17.9274 16.6893 17.2372 15.9991 16.3859 15.9991C15.5346 15.9991 14.8444 16.6893 14.8444 17.5406C14.8444 18.3919 15.5346 19.0821 16.3859 19.0821Z" fill="#D7DDE8"/>
</svg>
