<svg width="12" height="9" viewBox="0 0 12 9" fill="none" xmlns="http://www.w3.org/2000/svg">
<path d="M0 7.17261V7.33327C0 7.6869 0.140476 8.02603 0.390524 8.27608C0.640573 8.52613 0.979711 8.66661 1.33333 8.66661H10.6667C11.0203 8.66661 11.3594 8.52613 11.6095 8.27608C11.8595 8.02603 12 7.6869 12 7.33327V7.17261H0Z" fill="#A7122D"/>
<path d="M0 5.72705H12V7.22205H0V5.72705Z" fill="#EEEEEE"/>
<path d="M0 2.83777H12V5.7781H0V2.83777Z" fill="#292648"/>
<path d="M0 1.39368H12V2.88868H0V1.39368Z" fill="#EEEEEE"/>
<path d="M0 1.44433V1.33333C0 0.979711 0.140476 0.640573 0.390524 0.390524C0.640573 0.140476 0.979711 0 1.33333 0H10.6667C11.0203 0 11.3594 0.140476 11.6095 0.390524C11.8595 0.640573 12 0.979711 12 1.33333V1.44433H0Z" fill="#A7122D"/>
</svg>
