<svg width="16" height="20" viewBox="0 0 16 20" fill="none" xmlns="http://www.w3.org/2000/svg">
<path d="M7.65734 19.0821C8.70082 19.0821 9.55458 18.2284 9.55458 17.1849H5.76009C5.76009 18.2284 6.61385 19.0821 7.65734 19.0821ZM13.3491 13.3904V8.64727C13.3491 5.735 11.8028 3.29704 9.08027 2.65198V2.00692C9.08027 1.21956 8.44469 0.583984 7.65734 0.583984C6.86998 0.583984 6.2344 1.21956 6.2344 2.00692V2.65198C3.52134 3.29704 1.9656 5.72552 1.9656 8.64727V13.3904L0.0683594 15.2876V16.2363H15.2463V15.2876L13.3491 13.3904ZM11.4518 14.339H3.86285V8.64727C3.86285 6.29469 5.29527 4.37847 7.65734 4.37847C10.0194 4.37847 11.4518 6.29469 11.4518 8.64727V14.339Z" fill="#D7DDE8"/>
</svg>
