<svg width="16" height="14" viewBox="0 0 16 14" fill="none" xmlns="http://www.w3.org/2000/svg">
<path fill-rule="evenodd" clip-rule="evenodd" d="M1.00134 9.51657C1.64249 8.93953 2.51208 8.61536 3.4188 8.61536H8.88889C9.79561 8.61536 10.6652 8.93953 11.3063 9.51657C11.9475 10.0936 12.3077 10.8762 12.3077 11.6923V12.923C12.3077 13.2629 12.0016 13.5384 11.6239 13.5384C11.2463 13.5384 10.9402 13.2629 10.9402 12.923V11.6923C10.9402 11.2026 10.7241 10.7331 10.3394 10.3869C9.95467 10.0406 9.43292 9.84613 8.88889 9.84613H3.4188C2.87477 9.84613 2.35302 10.0406 1.96833 10.3869C1.58364 10.7331 1.36752 11.2026 1.36752 11.6923V12.923C1.36752 13.2629 1.06139 13.5384 0.683761 13.5384C0.30613 13.5384 0 13.2629 0 12.923V11.6923C0 10.8762 0.360194 10.0936 1.00134 9.51657Z" fill="#D7DDE8"/>
<path fill-rule="evenodd" clip-rule="evenodd" d="M6.15386 1.47692C4.93033 1.47692 3.93847 2.46878 3.93847 3.69231C3.93847 4.91583 4.93033 5.90769 6.15386 5.90769C7.37738 5.90769 8.36924 4.91583 8.36924 3.69231C8.36924 2.46878 7.37738 1.47692 6.15386 1.47692ZM2.46155 3.69231C2.46155 1.6531 4.11465 0 6.15386 0C8.19306 0 9.84616 1.6531 9.84616 3.69231C9.84616 5.73151 8.19306 7.38462 6.15386 7.38462C4.11465 7.38462 2.46155 5.73151 2.46155 3.69231Z" fill="#D7DDE8"/>
<path fill-rule="evenodd" clip-rule="evenodd" d="M12.3313 9.08466C12.4333 8.75016 12.836 8.549 13.2309 8.63537C14.023 8.80862 14.7247 9.1998 15.2259 9.7475C15.7271 10.2952 15.9994 10.9684 16 11.6614L16 12.9129C16 13.2584 15.6694 13.5384 15.2616 13.5384C14.8537 13.5384 14.5231 13.2584 14.5231 12.9129L14.5231 11.6623C14.5231 11.6622 14.5231 11.6624 14.5231 11.6623C14.5227 11.2466 14.3594 10.8426 14.0587 10.514C13.758 10.1854 13.3369 9.95065 12.8617 9.84671C12.4668 9.76034 12.2293 9.41916 12.3313 9.08466Z" fill="#D7DDE8"/>
<path fill-rule="evenodd" clip-rule="evenodd" d="M9.86935 1.70545C9.97034 1.36778 10.372 1.16413 10.7664 1.25059C11.5594 1.42439 12.2622 1.81916 12.7641 2.37267C13.266 2.92618 13.5384 3.60694 13.5384 4.30764C13.5384 5.00833 13.266 5.68909 12.7641 6.2426C12.2622 6.79611 11.5594 7.19089 10.7664 7.36468C10.372 7.45114 9.97034 7.24749 9.86935 6.90982C9.76835 6.57215 10.0062 6.22832 10.4007 6.14186C10.8765 6.03759 11.2982 5.80072 11.5993 5.46862C11.9004 5.13651 12.0639 4.72805 12.0639 4.30764C12.0639 3.88722 11.9004 3.47876 11.5993 3.14666C11.2982 2.81455 10.8765 2.57769 10.4007 2.47341C10.0062 2.38695 9.76835 2.04312 9.86935 1.70545Z" fill="#D7DDE8"/>
</svg>
