<svg width="9" height="9" viewBox="0 0 9 9" fill="none" xmlns="http://www.w3.org/2000/svg">
<path d="M8.97621 3.23101C8.94793 3.14771 8.89587 3.07451 8.82645 3.02046C8.75704 2.96641 8.67331 2.93387 8.58561 2.92685L6.02015 2.72302L4.90999 0.2659C4.87464 0.186761 4.81713 0.119544 4.74441 0.0723617C4.67169 0.0251792 4.58687 4.76392e-05 4.50018 6.76614e-08C4.4135 -4.75039e-05 4.32865 0.024991 4.25588 0.0720937C4.18311 0.119196 4.12553 0.18635 4.09009 0.26545L2.97993 2.72302L0.414464 2.92685C0.328269 2.93368 0.245865 2.96519 0.177113 3.01761C0.10836 3.07004 0.056169 3.14116 0.0267839 3.22247C-0.00260119 3.30378 -0.00793622 3.39183 0.0114171 3.47609C0.0307704 3.56035 0.0739926 3.63725 0.135913 3.69759L2.03177 5.5455L1.36127 8.44852C1.34091 8.53639 1.34744 8.62835 1.38 8.71247C1.41256 8.79659 1.46966 8.86898 1.54388 8.92025C1.6181 8.97152 1.70603 8.9993 1.79624 8.99999C1.88644 9.00067 1.97478 8.97424 2.04977 8.9241L4.50004 7.29082L6.9503 8.9241C7.02695 8.97499 7.11735 9.00118 7.20934 8.99917C7.30132 8.99715 7.39049 8.96702 7.46483 8.91282C7.53918 8.85862 7.59514 8.78296 7.6252 8.69602C7.65526 8.60907 7.65796 8.515 7.63296 8.42647L6.8099 5.54685L8.85111 3.71019C8.98476 3.58961 9.03381 3.40153 8.97621 3.23101Z" fill="white"/>
</svg>
