<svg width="15" height="12" viewBox="0 0 15 12" fill="none" xmlns="http://www.w3.org/2000/svg">
<path fill-rule="evenodd" clip-rule="evenodd" d="M1.08692 5.625C1.16034 5.755 1.26582 5.93404 1.40231 6.14658C1.69831 6.60749 2.13683 7.22076 2.70671 7.83208C3.85575 9.06466 5.47857 10.2273 7.50005 10.2273C9.52152 10.2273 11.1443 9.06466 12.2934 7.83208C12.8633 7.22076 13.3018 6.60749 13.5978 6.14658C13.7343 5.93404 13.8397 5.755 13.9132 5.625C13.8397 5.495 13.7343 5.31596 13.5978 5.10342C13.3018 4.64251 12.8633 4.02924 12.2934 3.41792C11.1443 2.18534 9.52152 1.02273 7.50005 1.02273C5.47857 1.02273 3.85575 2.18534 2.70671 3.41792C2.13683 4.02924 1.69831 4.64251 1.40231 5.10342C1.26582 5.31596 1.16034 5.495 1.08692 5.625ZM14.4917 5.625C14.9465 5.39631 14.9464 5.39614 14.9463 5.39594L14.9454 5.39412L14.9434 5.39007L14.9365 5.37652C14.9307 5.3651 14.9223 5.34895 14.9115 5.3284C14.8899 5.28729 14.8583 5.22851 14.8169 5.15457C14.7343 5.00677 14.6123 4.79801 14.4521 4.54857C14.1323 4.05067 13.6572 3.38553 13.0353 2.71844C11.8008 1.3942 9.92781 0 7.50005 0C5.07229 0 3.19928 1.3942 1.9648 2.71844C1.34292 3.38553 0.867764 4.05067 0.548017 4.54857C0.387828 4.79801 0.265814 5.00677 0.183144 5.15457C0.14179 5.22851 0.110223 5.28729 0.0885929 5.3284C0.0777762 5.34895 0.0694391 5.3651 0.0636003 5.37652L0.0567162 5.39007L0.0546825 5.39412L0.0540184 5.39545L0.0537746 5.39594C0.0536773 5.39614 0.0535897 5.39631 0.508392 5.625L0.0537746 5.39594C-0.0178015 5.5399 -0.0179864 5.70973 0.0535897 5.85369L0.508392 5.625C0.0535897 5.85369 0.0534924 5.85349 0.0535897 5.85369L0.0540184 5.85455L0.0546825 5.85588L0.0567162 5.85993L0.0636003 5.87348C0.0694391 5.8849 0.0777762 5.90105 0.0885929 5.9216C0.110223 5.96271 0.14179 6.02149 0.183144 6.09543C0.265814 6.24323 0.387828 6.45199 0.548017 6.70143C0.867764 7.19933 1.34292 7.86447 1.9648 8.53156C3.19928 9.8558 5.07229 11.25 7.50005 11.25C9.92781 11.25 11.8008 9.8558 13.0353 8.53156C13.6572 7.86447 14.1323 7.19933 14.4521 6.70143C14.6123 6.45199 14.7343 6.24323 14.8169 6.09543C14.8583 6.02149 14.8899 5.96271 14.9115 5.9216C14.9223 5.90105 14.9307 5.8849 14.9365 5.87348L14.9434 5.85993L14.9454 5.85588L14.9463 5.85406C14.9464 5.85386 14.9465 5.85369 14.4917 5.625ZM14.4917 5.625L14.9463 5.85406C15.0179 5.7101 15.0179 5.5399 14.9463 5.39594L14.4917 5.625Z" fill="#D7DDE8"/>
<path fill-rule="evenodd" clip-rule="evenodd" d="M7.50026 4.21902C6.72798 4.21902 6.10193 4.84862 6.10193 5.62527C6.10193 6.40192 6.72798 7.03152 7.50026 7.03152C8.27254 7.03152 8.89859 6.40192 8.89859 5.62527C8.89859 4.84862 8.27254 4.21902 7.50026 4.21902ZM5.08496 5.62527C5.08496 4.28378 6.16633 3.19629 7.50026 3.19629C8.83419 3.19629 9.91556 4.28378 9.91556 5.62527C9.91556 6.96675 8.83419 8.05424 7.50026 8.05424C6.16633 8.05424 5.08496 6.96675 5.08496 5.62527Z" fill="#D7DDE8"/>
</svg>
