<svg width="18" height="5" viewBox="0 0 18 5" fill="none" xmlns="http://www.w3.org/2000/svg">
<path d="M9 3.08683C9.55228 3.08683 10 2.61968 10 2.04342C10 1.46715 9.55228 1 9 1C8.44772 1 8 1.46715 8 2.04342C8 2.61968 8.44772 3.08683 9 3.08683Z" stroke="#D7DDE8" stroke-width="2" stroke-linecap="round" stroke-linejoin="round"/>
<path d="M16 3.08683C16.5523 3.08683 17 2.61968 17 2.04342C17 1.46715 16.5523 1 16 1C15.4477 1 15 1.46715 15 2.04342C15 2.61968 15.4477 3.08683 16 3.08683Z" stroke="#D7DDE8" stroke-width="2" stroke-linecap="round" stroke-linejoin="round"/>
<path d="M2 3.08683C2.55228 3.08683 3 2.61968 3 2.04342C3 1.46715 2.55228 1 2 1C1.44772 1 1 1.46715 1 2.04342C1 2.61968 1.44772 3.08683 2 3.08683Z" stroke="#D7DDE8" stroke-width="2" stroke-linecap="round" stroke-linejoin="round"/>
</svg>
