<svg width="20" height="21" viewBox="0 0 20 21" fill="none" xmlns="http://www.w3.org/2000/svg">
<path fill-rule="evenodd" clip-rule="evenodd" d="M9 2.03969C5.13401 2.03969 2 5.23589 2 9.1786C2 13.1213 5.13401 16.3175 9 16.3175C12.866 16.3175 16 13.1213 16 9.1786C16 5.23589 12.866 2.03969 9 2.03969ZM0 9.1786C0 4.1094 4.02944 0 9 0C13.9706 0 18 4.1094 18 9.1786C18 14.2478 13.9706 18.3572 9 18.3572C4.02944 18.3572 0 14.2478 0 9.1786Z" fill="#D7DDE8"/>
<path fill-rule="evenodd" clip-rule="evenodd" d="M13.9428 14.2196C14.3333 13.8213 14.9665 13.8213 15.357 14.2196L19.707 18.6559C20.0975 19.0542 20.0975 19.6999 19.707 20.0982C19.3165 20.4965 18.6833 20.4965 18.2928 20.0982L13.9428 15.6619C13.5523 15.2636 13.5523 14.6179 13.9428 14.2196Z" fill="#D7DDE8"/>
</svg>
