<svg width="15" height="15" viewBox="0 0 15 15" fill="none" xmlns="http://www.w3.org/2000/svg">
<path d="M14.3182 0H0.681818C0.500989 0 0.327566 0.0790176 0.1997 0.21967C0.0718342 0.360322 0 0.551088 0 0.75V6.75C0 6.94891 0.0718342 7.13968 0.1997 7.28033C0.327566 7.42098 0.500989 7.5 0.681818 7.5H2.72727V14.25C2.72727 14.4489 2.79911 14.6397 2.92697 14.7803C3.05484 14.921 3.22826 15 3.40909 15H11.5909C11.7717 15 11.9452 14.921 12.073 14.7803C12.2009 14.6397 12.2727 14.4489 12.2727 14.25V7.5H14.3182C14.499 7.5 14.6724 7.42098 14.8003 7.28033C14.9282 7.13968 15 6.94891 15 6.75V0.75C15 0.551088 14.9282 0.360322 14.8003 0.21967C14.6724 0.0790176 14.499 0 14.3182 0V0ZM4.09091 13.5V12C4.45257 12 4.79941 12.158 5.05515 12.4393C5.31088 12.7206 5.45455 13.1022 5.45455 13.5H4.09091ZM10.9091 13.5H9.54545C9.54545 13.1022 9.68912 12.7206 9.94485 12.4393C10.2006 12.158 10.5474 12 10.9091 12V13.5ZM10.9091 10.5C10.1858 10.5 9.49208 10.8161 8.98062 11.3787C8.46915 11.9413 8.18182 12.7044 8.18182 13.5H6.81818C6.81818 12.7044 6.53085 11.9413 6.01938 11.3787C5.50792 10.8161 4.81423 10.5 4.09091 10.5V4.5H10.9091V10.5ZM13.6364 6H12.2727V3.75C12.2727 3.55109 12.2009 3.36032 12.073 3.21967C11.9452 3.07902 11.7717 3 11.5909 3H3.40909C3.22826 3 3.05484 3.07902 2.92697 3.21967C2.79911 3.36032 2.72727 3.55109 2.72727 3.75V6H1.36364V1.5H13.6364V6ZM7.5 9.75C7.90455 9.75 8.30002 9.61804 8.63639 9.37081C8.97277 9.12357 9.23494 8.77217 9.38975 8.36104C9.54457 7.9499 9.58508 7.4975 9.50615 7.06105C9.42723 6.62459 9.23242 6.22368 8.94636 5.90901C8.66029 5.59434 8.29583 5.38005 7.89905 5.29323C7.50227 5.20642 7.091 5.25097 6.71724 5.42127C6.34348 5.59157 6.02402 5.87996 5.79927 6.24997C5.57451 6.61998 5.45455 7.05499 5.45455 7.5C5.45455 8.09674 5.67005 8.66903 6.05365 9.09099C6.43724 9.51295 6.95751 9.75 7.5 9.75ZM7.5 6.75C7.63485 6.75 7.76667 6.79399 7.8788 6.8764C7.99092 6.95881 8.07831 7.07594 8.12992 7.21299C8.18152 7.35003 8.19503 7.50083 8.16872 7.64632C8.14241 7.7918 8.07747 7.92544 7.98212 8.03033C7.88676 8.13522 7.76528 8.20665 7.63302 8.23559C7.50076 8.26453 7.36367 8.24968 7.23908 8.19291C7.11449 8.13614 7.00801 8.04001 6.93309 7.91668C6.85817 7.79334 6.81818 7.64834 6.81818 7.5C6.81818 7.30109 6.89002 7.11032 7.01788 6.96967C7.14575 6.82902 7.31917 6.75 7.5 6.75V6.75Z" fill="#D7DDE8"/>
</svg>
