<svg width="80" height="80" viewBox="0 0 80 80" fill="none" xmlns="http://www.w3.org/2000/svg">
<path d="M29 34C31.2091 34 33 32.2091 33 30C33 27.7909 31.2091 26 29 26C26.7909 26 25 27.7909 25 30C25 32.2091 26.7909 34 29 34Z" fill="#2E394E"/>
<path d="M52 34C54.2091 34 56 32.2091 56 30C56 27.7909 54.2091 26 52 26C49.7909 26 48 27.7909 48 30C48 32.2091 49.7909 34 52 34Z" fill="#2E394E"/>
<path d="M40 77C60.4345 77 77 60.4345 77 40C77 19.5655 60.4345 3 40 3C19.5655 3 3 19.5655 3 40C3 60.4345 19.5655 77 40 77Z" stroke="#2E394E" stroke-width="5" stroke-linecap="round" stroke-linejoin="round"/>
<path d="M55 55C55 55 49.375 47 40 47C30.625 47 25 55 25 55" stroke="#2E394E" stroke-width="5" stroke-linecap="round" stroke-linejoin="round"/>
</svg>
